# xmcd
#
# Track frame offsets:
#	150
#	10152
#	19175
#	28512
#	47574
#	59258
#	69263
#	77618
#	87529
#	95069
#	105279
#	116594
#	128966
#	140757
#	151587
#	162396
#	172081
#	184372
#	195979
#	204739
#	216646
#	225570
#	236514
#	247213
#	255384
#	263880
#	275474
#	286652
#	298457
#	308086
#	319885
#	328861
#	337465
#
# Disc length: 4652 seconds
#
# Revision: 1
# Processed by: cddbd v1.5.1PL0 Copyright (c) Steve Scherf et al.
# Submitted via: audiograbber 1.83.01
#
DISCID=f3122a21
DTITLE=Various Artist - Rock'N'Roll 33 Hits.
DYEAR=1900
DGENRE=
TTITLE0=Bill Haley and The Coments. - Rock Around The Clock.
TTITLE1=Elvis Presley. - Blue Suede Shoes.
TTITLE2=Little Richard. - Long Tall Sa.
TTITLE3=Chuck Berry. - Reelin 'And Rockin'
TTITLE4=Danny and The Juniors. - Rock and Roll Is Here To Stay.
TTITLE5=The Champs. - Tequila.
TTITLE6=Jeery Lee Lewis. - Lovin' Up A Storm.
TTITLE7=Roy Orbison. - Ooby Dooby.
TTITLE8=Ricky Nelson. - I'm Walkin'
TTITLE9=The Chiffons. - One Fine Day.
TTITLE10=Fabian. - Tiger.
TTITLE11=Bill Haley and The Comets. - Burn That Candie.
TTITLE12=Chubby Checker. - The Twist.
TTITLE13=Little Richard. - Tutti Frutti.
TTITLE14=Neil Sedaka. - I Go Ape.
TTITLE15=Chris Montez. - Let's Dance.
TTITLE16=Jackie Wilson. - Reet Petite.
TTITLE17=Lulu And The Lovers. - Shout.
TTITLE18=Eddie Cochran. - Summertime Blues.
TTITLE19=Gene Vinsent. - Be-Bop A Lula.
TTITLE20=Searchers. - Love Potion Number 9.
TTITLE21=Chubby Checker. - Dancin' Party.
TTITLE22=Frankie Valli. - Big Girls Don't Cry.
TTITLE23=John and The Hurricanes. - Rocking Goose.
TTITLE24=Jerry Lee Lewis. - Great Balls Of Fire.
TTITLE25=Tone Sheridan. - Ya Ya.
TTITLE26=Elvis Presley. - Shake, Rattle And Roll.
TTITLE27=Bill Haley and The Coments. - The Saints' Rock And Roll.
TTITLE28=Little Richard. - Ready Teddy.
TTITLE29=Neil Sedaka. - Calendar Girl.
TTITLE30=The Everly Brothers. - Wake Up.
TTITLE31=Elvis Presley. - Hard Headed Women.
TTITLE32=Searchers. - Love Potion Number 9.
EXTD=
EXTT0=
EXTT1=
EXTT2=
EXTT3=
EXTT4=
EXTT5=
EXTT6=
EXTT7=
EXTT8=
EXTT9=
EXTT10=
EXTT11=
EXTT12=
EXTT13=
EXTT14=
EXTT15=
EXTT16=
EXTT17=
EXTT18=
EXTT19=
EXTT20=
EXTT21=
EXTT22=
EXTT23=
EXTT24=
EXTT25=
EXTT26=
EXTT27=
EXTT28=
EXTT29=
EXTT30=
EXTT31=
EXTT32=
PLAYORDER=
